<svg width="1992" height="1992" viewBox="0 0 1992 1992" fill="none" xmlns="http://www.w3.org/2000/svg">
<path d="M1991.28 996.187C1991.28 1078.44 1829.97 1138.41 1809.63 1214.32C1788.69 1292.84 1897.8 1425.35 1858.01 1494.07C1817.71 1563.76 1648.03 1535.2 1591.41 1591.8C1534.88 1648.41 1563.44 1818.01 1493.67 1858.4C1424.95 1898.17 1292.43 1789 1213.99 1810.01C1138.08 1830.28 1078.11 1991.65 995.841 1991.65C913.507 1991.65 853.531 1830.28 777.702 1810.01C699.179 1789 566.665 1898.17 497.939 1858.4C428.166 1818.01 456.733 1648.41 400.195 1591.8C343.586 1535.2 173.905 1563.76 133.594 1494.07C93.8127 1425.35 202.993 1292.84 181.979 1214.32C161.714 1138.41 0.333984 1078.44 0.333984 996.187C0.333984 913.92 161.714 853.947 181.979 778.04C202.993 699.533 93.8127 567.013 133.594 498.293C173.905 428.6 343.586 457.16 400.195 400.56C456.81 343.947 428.243 174.347 497.939 133.973C566.665 94.1868 699.179 203.36 777.702 182.347C853.606 162.08 913.587 0.706824 995.841 0.706824C1078.11 0.706824 1138.08 162.08 1213.99 182.347C1292.51 203.36 1425.03 94.2535 1493.75 133.973C1563.44 174.347 1534.88 344.027 1591.49 400.56C1648.03 457.16 1817.71 428.6 1858.01 498.373C1897.8 567.093 1788.69 699.533 1809.71 778.04C1829.97 853.947 1991.28 913.92 1991.28 996.187Z" fill="#3897F1"/>
<path d="M888.777 1369.84L573.939 1055L709.52 919.413L888.777 1098.68L1355.64 631.813L1491.23 767.387L888.777 1369.84" fill="white"/>
</svg>
