<svg width="77" height="77" viewBox="0 0 77 77" fill="none" xmlns="http://www.w3.org/2000/svg">
<g clip-path="url(#clip0_19_3)">
<path d="M72.325 33.234V30.287C72.325 24.898 68.627 20.368 63.639 19.07L63.63 14.211C63.63 9.46899 59.771 5.60999 55.027 5.60999H54.572L14.31 18.1C13.393 18.153 12.523 18.365 11.706 18.684H11.601C5.205 18.684 0 23.889 0 30.287V59.091C0 65.488 5.204 70.694 11.601 70.694H60.724C67.12 70.694 72.325 65.489 72.325 59.091V55.26C74.648 54.361 76.304 52.109 76.304 49.471V39.021C76.303 36.385 74.648 34.133 72.325 33.234ZM70.303 49.47C70.303 49.588 70.21 49.681 70.092 49.681H53.851C53.733 49.681 53.641 49.588 53.641 49.47V39.021C53.641 38.906 53.735 38.812 53.851 38.812H70.092C70.208 38.812 70.303 38.906 70.303 39.021V49.47ZM55.398 11.637C56.659 11.817 57.63 12.903 57.63 14.216L57.638 18.685H32.679L55.398 11.637ZM60.724 64.693H11.602C8.509 64.693 6.001 62.184 6.001 59.09V30.287C6.001 27.192 8.509 24.684 11.602 24.684H60.724C63.818 24.684 66.325 27.192 66.325 30.287V32.812H53.851C50.427 32.812 47.641 35.597 47.641 39.021V49.47C47.641 52.895 50.427 55.681 53.851 55.681H66.325V59.091C66.325 62.184 63.818 64.693 60.724 64.693Z" fill="white"/>
</g>
<defs>
<clipPath id="clip0_19_3">
<rect width="76.304" height="76.304" fill="white"/>
</clipPath>
</defs>
</svg>
